{
.appVersion = "3343";
.formatVersion = 3;
axes = (
{
name = Elegance;
tag = ELGC;
}
);
date = "2024-05-03 06:00:28 +0000";
familyName = Samsara;
fontMaster = (
{
axesValues = (
0
);
customParameters = (
{
name = typoAscender;
value = 887;
},
{
name = typoDescender;
value = -387;
},
{
name = typoLineGap;
value = 0;
},
{
name = winAscent;
value = 887;
},
{
name = winDescent;
value = 500;
},
{
name = hheaAscender;
value = 887;
},
{
name = hheaDescender;
value = -387;
},
{
name = strikeoutPosition;
value = 250;
},
{
name = strikeoutSize;
value = 50;
}
);
id = m01;
metricValues = (
{
pos = 887;
},
{
pos = 700;
},
{
pos = 500;
},
{
},
{
pos = -387;
},
{
}
);
name = Regular;
},
{
axesValues = (
1000
);
customParameters = (
{
name = typoAscender;
value = 887;
},
{
name = typoDescender;
value = -387;
},
{
name = typoLineGap;
value = 0;
},
{
name = winAscent;
value = 887;
},
{
name = winDescent;
value = 500;
},
{
name = hheaAscender;
value = 887;
},
{
name = hheaDescender;
value = -387;
},
{
name = strikeoutPosition;
value = 250;
},
{
name = strikeoutSize;
value = 50;
}
);
id = "B64FBE30-4D06-4680-90AF-157B08CC9FE5";
metricValues = (
{
pos = 887;
},
{
pos = 700;
},
{
pos = 500;
},
{
},
{
pos = -387;
},
{
}
);
name = Elegant;
}
);
glyphs = (
{
glyphname = A;
lastChange = "2025-10-01 16:28:14 +0000";
layers = (
{
layerId = m01;
shapes = (
{
closed = 1;
nodes = (
(304,0,l),
(304,126,l),
(304,88,o),
(335,31,o),
(392,0,o),
(430,0,qs)
);
},
{
closed = 1;
nodes = (
(118,0,o),
(234,70,o),
(304,186,o),
(304,253,qs),
(304,0,l),
(51,0,l)
);
},
{
closed = 1;
nodes = (
(51,253,ls),
(51,320,o),
(120,433,o),
(237,500,o),
(304,500,q),
(304,253,l),
(237,253,o),
(121,183,o),
(51,67,o),
(51,0,qs)
);
}
);
width = 370;
},
{
layerId = "B64FBE30-4D06-4680-90AF-157B08CC9FE5";
shapes = (
{
closed = 1;
nodes = (
(304,0,l),
(304,126,l),
(304,77,o),
(311,30,o),
(343,0,o),
(379,0,qs)
);
},
{
closed = 1;
nodes = (
(151,0,o),
(239,8,o),
(304,62,o),
(304,126,q),
(304,0,l),
(51,0,l)
);
},
{
closed = 1;
nodes = (
(51,253,ls),
(51,320,o),
(120,433,o),
(237,500,o),
(304,500,q),
(304,440,l),
(237,440,o),
(121,370,o),
(51,254,o),
(51,187,q)
);
}
);
width = 370;
}
);
note = a;
unicode = (65,97);
},
{
glyphname = B;
lastChange = "2025-10-01 16:28:14 +0000";
layers = (
{
layerId = m01;
shapes = (
{
closed = 1;
nodes = (
(397,0,l),
(397,67,o),
(327,183,o),
(211,253,o),
(144,253,q),
(144,500,l),
(211,500,o),
(328,433,o),
(397,320,o),
(397,253,qs)
);
},
{
closed = 1;
nodes = (
(56,0,o),
(113,31,o),
(144,88,o),
(144,126,qs),
(144,0,l),
(18,0,l)
);
},
{
closed = 1;
nodes = (
(144,887,l),
(144,634,l),
(144,701,o),
(74,817,o),
(-42,887,o),
(-109,887,qs)
);
},
{
closed = 1;
nodes = (
(144,0,l),
(144,253,l),
(144,186,o),
(214,70,o),
(330,0,o),
(397,0,qs)
);
}
);
width = 440;
},
{
layerId = "B64FBE30-4D06-4680-90AF-157B08CC9FE5";
shapes = (
{
closed = 1;
nodes = (
(417,187,l),
(417,254,o),
(347,370,o),
(231,440,o),
(164,440,q),
(164,500,l),
(231,500,o),
(348,433,o),
(417,320,o),
(417,253,qs)
);
},
{
closed = 1;
nodes = (
(125,0,o),
(157,30,o),
(164,77,o),
(164,126,qs),
(164,0,l),
(89,0,l)
);
},
{
closed = 1;
nodes = (
(164,887,l),
(164,634,l),
(164,722,o),
(150,822,o),
(91,887,o),
(27,887,qs)
);
},
{
closed = 1;
nodes = (
(164,0,l),
(164,125,l),
(164,61,o),
(229,8,o),
(315,0,o),
(417,0,qs)
);
}
);
width = 460;
}
);
note = b;
unicode = (66,98);
},
{
glyphname = C;
lastChange = "2025-10-01 16:28:14 +0000";
layers = (
{
layerId = m01;
shapes = (
{
closed = 1;
nodes = (
(50,253,ls),
(50,320,o),
(119,433,o),
(236,500,o),
(303,500,q),
(303,253,l),
(236,253,o),
(120,183,o),
(50,67,o),
(50,0,qs)
);
},
{
closed = 1;
nodes = (
(303,0,l),
(177,0,l),
(215,0,o),
(272,31,o),
(303,88,o),
(303,126,qs)
);
}
);
width = 353;
},
{
layerId = "B64FBE30-4D06-4680-90AF-157B08CC9FE5";
shapes = (
{
closed = 1;
nodes = (
(50,253,ls),
(50,320,o),
(119,433,o),
(236,500,o),
(303,500,q),
(303,440,l),
(236,440,o),
(120,370,o),
(50,254,o),
(50,187,q)
);
},
{
closed = 1;
nodes = (
(303,0,l),
(226,0,l),
(262,0,o),
(295,30,o),
(303,79,o),
(303,126,qs)
);
}
);
width = 353;
}
);
note = c;
unicode = (67,99);
},
{
glyphname = D;
lastChange = "2025-10-01 16:28:14 +0000";
layers = (
{
layerId = m01;
shapes = (
{
closed = 1;
nodes = (
(31,253,ls),
(31,320,o),
(100,433,o),
(217,500,o),
(284,500,q),
(284,253,l),
(217,253,o),
(101,183,o),
(31,67,o),
(31,0,qs)
);
},
{
closed = 1;
nodes = (
(284,0,l),
(284,126,l),
(284,88,o),
(315,31,o),
(372,0,o),
(410,0,qs)
);
},
{
closed = 1;
nodes = (
(98,0,o),
(214,70,o),
(284,186,o),
(284,253,qs),
(284,0,l),
(31,0,l)
);
},
{
closed = 1;
nodes = (
(470,887,o),
(354,817,o),
(284,701,o),
(284,634,qs),
(284,887,l),
(537,887,l)
);
}
);
width = 367;
},
{
layerId = "B64FBE30-4D06-4680-90AF-157B08CC9FE5";
shapes = (
{
closed = 1;
nodes = (
(71,253,ls),
(71,320,o),
(140,433,o),
(257,500,o),
(324,500,q),
(324,440,l),
(257,440,o),
(141,370,o),
(71,254,o),
(71,187,q)
);
},
{
closed = 1;
nodes = (
(324,0,l),
(324,126,l),
(324,77,o),
(331,30,o),
(363,0,o),
(399,0,qs)
);
},
{
closed = 1;
nodes = (
(171,0,o),
(259,8,o),
(324,62,o),
(324,126,q),
(324,0,l),
(71,0,l)
);
},
{
closed = 1;
nodes = (
(397,887,o),
(338,822,o),
(324,722,o),
(324,634,qs),
(324,887,l),
(461,887,l)
);
}
);
width = 507;
}
);
note = d;
unicode = (68,100);
},
{
glyphname = E;
lastChange = "2025-10-01 16:28:14 +0000";
layers = (
{
layerId = m01;
shapes = (
{
closed = 1;
nodes = (
(40,249,ls),
(40,311,o),
(106,428,o),
(222,500,o),
(292,500,q),
(292,253,l),
(222,251,o),
(109,176,o),
(43,60,o),
(40,0,q)
);
},
{
closed = 1;
nodes = (
(292,0,l),
(166,0,l),
(204,0,o),
(261,31,o),
(292,88,o),
(292,126,qs)
);
},
{
closed = 1;
nodes = (
(292,127,l),
(166,127,l),
(204,127,o),
(261,158,o),
(292,215,o),
(292,253,qs)
);
}
);
width = 346;
},
{
layerId = "B64FBE30-4D06-4680-90AF-157B08CC9FE5";
shapes = (
{
closed = 1;
nodes = (
(40,249,ls),
(40,311,o),
(106,428,o),
(222,500,o),
(292,500,q),
(292,440,l),
(222,438,o),
(109,363,o),
(43,247,o),
(40,187,q)
);
},
{
closed = 1;
nodes = (
(292,0,l),
(216,0,l),
(252,0,o),
(285,30,o),
(292,78,o),
(292,126,qs)
);
},
{
closed = 1;
nodes = (
(292,127,l),
(215,127,l),
(251,127,o),
(284,157,o),
(292,206,o),
(292,253,qs)
);
}
);
width = 346;
}
);
note = e;
unicode = (69,101);
},
{
glyphname = F;
lastChange = "2025-10-01 16:28:14 +0000";
layers = (
{
layerId = m01;
shapes = (
{
closed = 1;
nodes = (
(187,636,ls),
(187,698,o),
(253,815,o),
(369,887,o),
(439,887,q),
(439,640,l),
(369,638,o),
(253,561,o),
(187,444,o),
(187,387,qs)
);
},
{
closed = 1;
nodes = (
(187,0,l),
(187,253,l),
(187,186,o),
(257,70,o),
(373,0,o),
(440,0,qs)
);
},
{
closed = 1;
nodes = (
(187,261,l),
(61,261,l),
(99,261,o),
(156,292,o),
(187,349,o),
(187,387,qs)
);
},
{
closed = 1;
nodes = (
(187,261,l),
(187,387,l),
(187,349,o),
(218,292,o),
(275,261,o),
(313,261,qs)
);
},
{
closed = 1;
nodes = (
(439,887,l),
(565,887,l),
(527,887,o),
(470,856,o),
(439,799,o),
(439,761,qs)
);
}
);
width = 485;
},
{
layerId = "B64FBE30-4D06-4680-90AF-157B08CC9FE5";
shapes = (
{
closed = 1;
nodes = (
(187,636,ls),
(187,698,o),
(253,815,o),
(369,887,o),
(439,887,q),
(439,827,l),
(369,825,o),
(253,748,o),
(187,631,o),
(187,574,q)
);
},
{
closed = 1;
nodes = (
(187,0,l),
(187,136,l),
(187,72,o),
(252,13,o),
(351,0,o),
(440,0,qs)
);
},
{
closed = 1;
nodes = (
(187,261,l),
(110,261,l),
(146,261,o),
(179,291,o),
(187,340,o),
(187,387,qs)
);
},
{
closed = 1;
nodes = (
(187,261,l),
(187,387,l),
(187,340,o),
(195,291,o),
(228,261,o),
(264,261,qs)
);
},
{
closed = 1;
nodes = (
(439,887,l),
(546,887,l),
(508,887,o),
(466,881,o),
(439,855,o),
(439,827,qs)
);
}
);
width = 485;
}
);
note = f;
unicode = (70,102);
},
{
glyphname = G;
lastChange = "2025-10-01 16:28:14 +0000";
layers = (
{
layerId = m01;
shapes = (
{
closed = 1;
nodes = (
(54,249,ls),
(54,311,o),
(120,428,o),
(236,500,o),
(306,500,q),
(306,253,l),
(236,251,o),
(123,176,o),
(57,60,o),
(54,0,q)
);
},
{
closed = 1;
nodes = (
(53,-253,l),
(53,-127,l),
(53,-165,o),
(84,-222,o),
(141,-253,o),
(179,-253,qs)
);
},
{
closed = 1;
nodes = (
(306,0,l),
(53,0,l),
(120,0,o),
(236,70,o),
(306,186,o),
(306,253,qs)
);
},
{
closed = 1;
nodes = (
(306,-186,o),
(236,-70,o),
(120,0,o),
(53,0,qs),
(306,0,l),
(306,-253,l)
);
}
);
width = 360;
},
{
layerId = "B64FBE30-4D06-4680-90AF-157B08CC9FE5";
shapes = (
{
closed = 1;
nodes = (
(84,249,ls),
(84,311,o),
(150,428,o),
(266,500,o),
(336,500,q),
(336,440,l),
(266,438,o),
(153,363,o),
(87,247,o),
(84,187,q)
);
},
{
closed = 1;
nodes = (
(83,-253,l),
(83,-127,l),
(83,-173,o),
(91,-223,o),
(125,-253,o),
(161,-253,qs)
);
},
{
closed = 1;
nodes = (
(336,0,l),
(83,0,l),
(171,0,o),
(271,14,o),
(336,73,o),
(336,137,qs)
);
},
{
closed = 1;
nodes = (
(336,-72,o),
(271,-13,o),
(172,0,o),
(83,0,qs),
(336,0,l),
(336,-136,l)
);
}
);
width = 430;
}
);
note = g;
unicode = (71,103);
},
{
glyphname = H;
lastChange = "2025-10-01 16:28:14 +0000";
layers = (
{
layerId = m01;
shapes = (
{
closed = 1;
nodes = (
(357,0,l),
(357,67,o),
(287,183,o),
(171,253,o),
(104,253,q),
(104,500,l),
(171,500,o),
(288,433,o),
(357,320,o),
(357,253,qs)
);
},
{
closed = 1;
nodes = (
(16,0,o),
(73,31,o),
(104,88,o),
(104,126,qs),
(104,0,l),
(-22,0,l)
);
},
{
closed = 1;
nodes = (
(104,887,l),
(104,634,l),
(104,701,o),
(34,817,o),
(-82,887,o),
(-149,887,qs)
);
}
);
width = 420;
},
{
layerId = "B64FBE30-4D06-4680-90AF-157B08CC9FE5";
shapes = (
{
closed = 1;
nodes = (
(357,187,l),
(357,254,o),
(287,370,o),
(171,440,o),
(104,440,q),
(104,500,l),
(171,500,o),
(288,433,o),
(357,320,o),
(357,253,qs)
);
},
{
closed = 1;
nodes = (
(61,0,o),
(95,30,o),
(104,80,o),
(104,126,qs),
(104,0,l),
(25,0,l)
);
},
{
closed = 1;
nodes = (
(104,887,l),
(104,634,l),
(104,720,o),
(89,822,o),
(29,887,o),
(-35,887,qs)
);
}
);
width = 420;
}
);
note = h;
unicode = (72,104);
},
{
glyphname = I;
lastChange = "2025-10-01 16:28:14 +0000";
layers = (
{
layerId = m01;
shapes = (
{
closed = 1;
nodes = (
(327,0,l),
(327,67,o),
(257,183,o),
(141,253,o),
(74,253,q),
(74,500,l),
(141,500,o),
(258,433,o),
(327,320,o),
(327,253,qs)
);
},
{
closed = 1;
nodes = (
(177,586,o),
(114,649,o),
(62,649,qs),
(177,649,l),
(177,534,l)
);
},
{
closed = 1;
nodes = (
(177,649,l),
(292,649,l),
(240,649,o),
(177,586,o),
(177,534,qs)
);
},
{
closed = 1;
nodes = (
(177,649,l),
(62,649,l),
(114,649,o),
(177,712,o),
(177,764,qs)
);
},
{
closed = 1;
nodes = (
(177,712,o),
(240,649,o),
(292,649,qs),
(177,649,l),
(177,764,l)
);
}
);
width = 370;
},
{
layerId = "B64FBE30-4D06-4680-90AF-157B08CC9FE5";
shapes = (
{
closed = 1;
nodes = (
(327,187,l),
(327,254,o),
(257,370,o),
(141,440,o),
(74,440,q),
(74,500,l),
(141,500,o),
(258,433,o),
(327,320,o),
(327,253,qs)
);
},
{
closed = 1;
nodes = (
(160,630,o),
(149,641,o),
(149,649,q),
(168,649,l),
(168,630,l)
);
},
{
closed = 1;
nodes = (
(168,649,l),
(187,649,l),
(187,641,o),
(176,630,o),
(168,630,q)
);
},
{
closed = 1;
nodes = (
(168,649,l),
(149,649,l),
(149,657,o),
(160,668,o),
(168,668,q)
);
},
{
closed = 1;
nodes = (
(176,668,o),
(187,657,o),
(187,649,q),
(168,649,l),
(168,668,l)
);
}
);
width = 370;
}
);
note = i;
unicode = (73,105);
},
{
glyphname = J;
lastChange = "2025-10-01 16:28:14 +0000";
layers = (
{
layerId = m01;
shapes = (
{
closed = 1;
nodes = (
(307,0,l),
(307,67,o),
(237,183,o),
(121,253,o),
(54,253,q),
(54,500,l),
(121,500,o),
(238,433,o),
(307,320,o),
(307,253,qs)
);
},
{
closed = 1;
nodes = (
(54,-500,l),
(-72,-500,l),
(-34,-500,o),
(23,-469,o),
(54,-412,o),
(54,-374,qs)
);
},
{
closed = 1;
nodes = (
(307,-253,ls),
(307,-320,o),
(238,-433,o),
(121,-500,o),
(54,-500,q),
(54,-253,l),
(121,-253,o),
(237,-183,o),
(307,-67,o),
(307,0,qs)
);
},
{
closed = 1;
nodes = (
(177,586,o),
(114,649,o),
(62,649,qs),
(177,649,l),
(177,534,l)
);
},
{
closed = 1;
nodes = (
(177,649,l),
(292,649,l),
(240,649,o),
(177,586,o),
(177,534,qs)
);
},
{
closed = 1;
nodes = (
(177,649,l),
(62,649,l),
(114,649,o),
(177,712,o),
(177,764,qs)
);
},
{
closed = 1;
nodes = (
(177,712,o),
(240,649,o),
(292,649,qs),
(177,649,l),
(177,764,l)
);
}
);
width = 390;
},
{
layerId = "B64FBE30-4D06-4680-90AF-157B08CC9FE5";
shapes = (
{
closed = 1;
nodes = (
(307,187,l),
(307,254,o),
(237,370,o),
(121,440,o),
(54,440,q),
(54,500,l),
(121,500,o),
(238,433,o),
(307,320,o),
(307,253,qs)
);
},
{
closed = 1;
nodes = (
(54,-500,l),
(-72,-500,l),
(-24,-500,o),
(24,-494,o),
(54,-469,o),
(54,-440,qs)
);
},
{
closed = 1;
nodes = (
(307,-253,ls),
(307,-320,o),
(238,-433,o),
(121,-500,o),
(54,-500,q),
(54,-440,l),
(121,-440,o),
(237,-370,o),
(307,-254,o),
(307,-187,q)
);
},
{
closed = 1;
nodes = (
(160,630,o),
(149,641,o),
(149,649,q),
(168,649,l),
(168,630,l)
);
},
{
closed = 1;
nodes = (
(168,649,l),
(187,649,l),
(187,641,o),
(176,630,o),
(168,630,q)
);
},
{
closed = 1;
nodes = (
(168,649,l),
(149,649,l),
(149,657,o),
(160,668,o),
(168,668,q)
);
},
{
closed = 1;
nodes = (
(176,668,o),
(187,657,o),
(187,649,q),
(168,649,l),
(168,668,l)
);
}
);
width = 390;
}
);
note = j;
unicode = (74,106);
},
{
glyphname = K;
lastChange = "2025-10-01 16:28:14 +0000";
layers = (
{
layerId = m01;
shapes = (
{
closed = 1;
nodes = (
(337,0,l),
(337,38,o),
(306,95,o),
(249,126,o),
(211,126,qs),
(84,126,l),
(84,373,l),
(151,373,o),
(268,306,o),
(337,193,o),
(337,126,qs)
);
},
{
closed = 1;
nodes = (
(-4,0,o),
(53,31,o),
(84,88,o),
(84,126,qs),
(84,0,l),
(-42,0,l)
);
},
{
closed = 1;
nodes = (
(84,887,l),
(84,634,l),
(84,701,o),
(14,817,o),
(-102,887,o),
(-169,887,qs)
);
},
{
closed = 1;
nodes = (
(237,374,o),
(294,405,o),
(325,462,o),
(325,500,qs),
(325,374,l),
(199,374,l)
);
}
);
width = 430;
},
{
layerId = "B64FBE30-4D06-4680-90AF-157B08CC9FE5";
shapes = (
{
closed = 1;
nodes = (
(337,0,ls),
(337,57,o),
(282,205,o),
(167,313,o),
(84,313,q),
(84,313,l),
(84,373,l),
(172,373,o),
(285,286,o),
(337,131,o),
(337,27,qs)
);
},
{
closed = 1;
nodes = (
(42,0,o),
(76,30,o),
(84,80,o),
(84,126,qs),
(84,0,l),
(6,0,l)
);
},
{
closed = 1;
nodes = (
(84,887,l),
(84,634,l),
(84,722,o),
(70,822,o),
(11,887,o),
(-53,887,qs)
);
},
{
closed = 1;
nodes = (
(281,374,o),
(316,404,o),
(325,455,o),
(325,500,qs),
(325,374,l),
(245,374,l)
);
}
);
width = 430;
}
);
note = k;
unicode = (75,107);
},
{
glyphname = L;
lastChange = "2025-10-01 16:28:14 +0000";
layers = (
{
layerId = m01;
shapes = (
{
closed = 1;
nodes = (
(95,626,ls),
(95,693,o),
(164,806,o),
(281,873,o),
(348,873,q),
(348,626,l),
(281,626,o),
(165,556,o),
(95,440,o),
(95,373,qs)
);
},
{
closed = 1;
nodes = (
(95,373,l),
(95,335,o),
(126,278,o),
(183,247,o),
(221,247,qs),
(348,247,l),
(348,0,l),
(281,0,o),
(164,67,o),
(95,180,o),
(95,247,qs)
);
}
);
width = 420;
},
{
layerId = "B64FBE30-4D06-4680-90AF-157B08CC9FE5";
shapes = (
{
closed = 1;
nodes = (
(95,626,ls),
(95,693,o),
(164,806,o),
(281,873,o),
(348,873,q),
(348,813,l),
(281,813,o),
(165,743,o),
(95,627,o),
(95,560,q)
);
},
{
closed = 1;
nodes = (
(94,373,l),
(94,323,o),
(142,175,o),
(252,60,o),
(340,60,qs),
(347,60,l),
(347,0,l),
(278,0,o),
(163,61,o),
(94,173,o),
(94,247,qs)
);
}
);
width = 420;
}
);
note = l;
unicode = (76,108);
},
{
glyphname = M;
lastChange = "2025-10-01 16:28:14 +0000";
layers = (
{
layerId = m01;
shapes = (
{
closed = 1;
nodes = (
(106,253,ls),
(106,320,o),
(175,433,o),
(292,500,o),
(359,500,q),
(359,253,l),
(292,253,o),
(176,183,o),
(106,67,o),
(106,0,qs)
);
},
{
closed = 1;
nodes = (
(106,499,l),
(106,373,l),
(106,411,o),
(75,468,o),
(18,499,o),
(-20,499,qs)
);
},
{
closed = 1;
nodes = (
(359,253,ls),
(359,320,o),
(428,433,o),
(545,500,o),
(612,500,q),
(612,253,l),
(545,253,o),
(429,183,o),
(359,67,o),
(359,0,qs)
);
},
{
closed = 1;
nodes = (
(612,0,l),
(612,126,l),
(612,88,o),
(643,31,o),
(700,0,o),
(738,0,qs)
);
}
);
width = 698;
},
{
layerId = "B64FBE30-4D06-4680-90AF-157B08CC9FE5";
shapes = (
{
closed = 1;
nodes = (
(106,253,ls),
(106,320,o),
(175,433,o),
(292,500,o),
(359,500,q),
(359,440,l),
(292,440,o),
(176,370,o),
(106,254,o),
(106,187,q)
);
},
{
closed = 1;
nodes = (
(106,499,l),
(106,373,l),
(106,421,o),
(99,469,o),
(66,499,o),
(30,499,qs)
);
},
{
closed = 1;
nodes = (
(359,253,ls),
(359,320,o),
(428,433,o),
(545,500,o),
(612,500,q),
(612,440,l),
(545,440,o),
(429,370,o),
(359,254,o),
(359,187,q)
);
},
{
closed = 1;
nodes = (
(612,0,l),
(612,126,l),
(612,79,o),
(620,30,o),
(653,0,o),
(689,0,qs)
);
}
);
width = 698;
}
);
note = m;
unicode = (77,109);
},
{
glyphname = N;
lastChange = "2025-10-01 16:28:14 +0000";
layers = (
{
layerId = m01;
shapes = (
{
closed = 1;
nodes = (
(111,253,ls),
(111,320,o),
(180,433,o),
(297,500,o),
(364,500,q),
(364,253,l),
(297,253,o),
(181,183,o),
(111,67,o),
(111,0,qs)
);
},
{
closed = 1;
nodes = (
(111,499,l),
(111,373,l),
(111,411,o),
(80,468,o),
(23,499,o),
(-15,499,qs)
);
},
{
closed = 1;
nodes = (
(364,0,l),
(364,126,l),
(364,88,o),
(395,31,o),
(452,0,o),
(490,0,qs)
);
}
);
width = 470;
},
{
layerId = "B64FBE30-4D06-4680-90AF-157B08CC9FE5";
shapes = (
{
closed = 1;
nodes = (
(111,253,ls),
(111,320,o),
(180,433,o),
(297,500,o),
(364,500,q),
(364,440,l),
(297,440,o),
(181,370,o),
(111,254,o),
(111,187,q)
);
},
{
closed = 1;
nodes = (
(111,499,l),
(111,373,l),
(111,420,o),
(103,469,o),
(70,499,o),
(34,499,qs)
);
},
{
closed = 1;
nodes = (
(364,0,l),
(364,126,l),
(364,79,o),
(372,30,o),
(405,0,o),
(441,0,qs)
);
}
);
width = 470;
}
);
note = n;
unicode = (78,110);
},
{
glyphname = O;
lastChange = "2025-10-01 16:28:14 +0000";
layers = (
{
layerId = m01;
shapes = (
{
closed = 1;
nodes = (
(44,249,ls),
(44,311,o),
(110,428,o),
(226,500,o),
(296,500,q),
(296,253,l),
(226,251,o),
(113,176,o),
(47,60,o),
(44,0,q)
);
},
{
closed = 1;
nodes = (
(294,0,l),
(44,0,l),
(117,0,o),
(231,69,o),
(295,185,o),
(296,253,qs)
);
}
);
width = 350;
},
{
layerId = "B64FBE30-4D06-4680-90AF-157B08CC9FE5";
shapes = (
{
closed = 1;
nodes = (
(74,249,ls),
(74,311,o),
(140,428,o),
(256,500,o),
(326,500,q),
(326,440,l),
(256,438,o),
(143,363,o),
(77,247,o),
(74,187,q)
);
},
{
closed = 1;
nodes = (
(324,0,l),
(74,0,l),
(167,0,o),
(265,14,o),
(325,73,o),
(326,137,qs)
);
}
);
width = 420;
}
);
note = o;
unicode = (79,111);
},
{
glyphname = P;
lastChange = "2025-10-01 16:28:14 +0000";
layers = (
{
layerId = m01;
shapes = (
{
closed = 1;
nodes = (
(93,253,ls),
(93,320,o),
(162,433,o),
(279,500,o),
(346,500,q),
(346,253,l),
(279,253,o),
(163,183,o),
(93,67,o),
(93,0,qs)
);
},
{
closed = 1;
nodes = (
(93,501,l),
(93,375,l),
(93,413,o),
(62,470,o),
(5,501,o),
(-33,501,qs)
);
},
{
closed = 1;
nodes = (
(-93,-387,o),
(23,-317,o),
(93,-201,o),
(93,-134,qs),
(93,-387,l),
(-160,-387,l)
);
},
{
closed = 1;
nodes = (
(160,0,o),
(276,70,o),
(346,186,o),
(346,253,qs),
(346,0,l),
(93,0,l)
);
}
);
width = 404;
},
{
layerId = "B64FBE30-4D06-4680-90AF-157B08CC9FE5";
shapes = (
{
closed = 1;
nodes = (
(93,253,ls),
(93,320,o),
(162,433,o),
(279,500,o),
(346,500,q),
(346,439,l),
(279,439,o),
(163,369,o),
(93,253,o),
(93,186,q)
);
},
{
closed = 1;
nodes = (
(93,501,l),
(93,375,l),
(93,421,o),
(85,471,o),
(51,501,o),
(15,501,qs)
);
},
{
closed = 1;
nodes = (
(17,-387,o),
(78,-321,o),
(93,-220,o),
(93,-134,qs),
(93,-387,l),
(-47,-387,l)
);
},
{
closed = 1;
nodes = (
(182,0,o),
(281,13,o),
(346,72,o),
(346,136,qs),
(346,0,l),
(93,0,l)
);
}
);
width = 404;
}
);
note = p;
unicode = (80,112);
},
{
glyphname = Q;
lastChange = "2025-10-01 16:28:14 +0000";
layers = (
{
layerId = m01;
shapes = (
{
closed = 1;
nodes = (
(329,0,l),
(329,67,o),
(259,183,o),
(143,253,o),
(76,253,q),
(76,500,l),
(143,500,o),
(260,433,o),
(329,320,o),
(329,253,qs)
);
},
{
closed = 1;
nodes = (
(398,501,o),
(329,432,o),
(329,375,qs),
(329,501,l),
(455,501,l)
);
},
{
closed = 1;
nodes = (
(329,-387,l),
(329,-134,l),
(329,-201,o),
(399,-317,o),
(515,-387,o),
(582,-387,qs)
);
},
{
closed = 1;
nodes = (
(76,0,l),
(76,253,l),
(76,186,o),
(146,70,o),
(262,0,o),
(329,0,qs)
);
}
);
width = 470;
},
{
layerId = "B64FBE30-4D06-4680-90AF-157B08CC9FE5";
shapes = (
{
closed = 1;
nodes = (
(329,187,l),
(329,254,o),
(259,370,o),
(143,440,o),
(76,440,q),
(76,500,l),
(143,500,o),
(260,433,o),
(329,320,o),
(329,253,qs)
);
},
{
closed = 1;
nodes = (
(398,501,o),
(329,432,o),
(329,375,qs),
(329,501,l),
(455,501,l)
);
},
{
closed = 1;
nodes = (
(329,-387,l),
(329,-134,l),
(329,-222,o),
(343,-322,o),
(402,-387,o),
(466,-387,qs)
);
},
{
closed = 1;
nodes = (
(76,0,l),
(76,136,l),
(76,72,o),
(141,13,o),
(240,0,o),
(329,0,qs)
);
}
);
width = 470;
}
);
note = q;
unicode = (81,113);
},
{
glyphname = R;
lastChange = "2025-10-01 16:28:14 +0000";
layers = (
{
layerId = m01;
shapes = (
{
closed = 1;
nodes = (
(56,249,ls),
(56,311,o),
(122,428,o),
(238,500,o),
(308,500,q),
(308,253,l),
(238,251,o),
(125,176,o),
(59,60,o),
(56,0,q)
);
},
{
closed = 1;
nodes = (
(56,500,l),
(56,374,l),
(56,412,o),
(25,469,o),
(-32,500,o),
(-70,500,qs)
);
}
);
width = 360;
},
{
layerId = "B64FBE30-4D06-4680-90AF-157B08CC9FE5";
shapes = (
{
closed = 1;
nodes = (
(86,249,ls),
(86,311,o),
(152,428,o),
(268,500,o),
(338,500,q),
(338,440,l),
(268,438,o),
(152,363,o),
(86,246,o),
(86,187,q)
);
},
{
closed = 1;
nodes = (
(86,500,l),
(86,374,l),
(86,422,o),
(79,470,o),
(46,500,o),
(10,500,qs)
);
}
);
width = 430;
}
);
note = r;
unicode = (82,114);
},
{
glyphname = S;
lastChange = "2025-10-01 16:28:14 +0000";
layers = (
{
layerId = m01;
shapes = (
{
closed = 1;
nodes = (
(273,247,l),
(273,-6,l),
(273,58,o),
(202,172,o),
(85,244,o),
(20,247,q)
);
},
{
closed = 1;
nodes = (
(399,500,l),
(365,500,o),
(312,474,o),
(278,427,o),
(274,395,qs),
(273,389,o),
(273,374,qs),
(273,247,l),
(20,247,l),
(20,314,o),
(90,430,o),
(206,500,o),
(273,500,qs)
);
},
{
closed = 1;
nodes = (
(20,88,o),
(51,31,o),
(108,0,o),
(146,0,qs),
(20,0,l),
(20,126,l)
);
}
);
width = 436;
},
{
layerId = "B64FBE30-4D06-4680-90AF-157B08CC9FE5";
shapes = (
{
closed = 1;
nodes = (
(253,397,l),
(253,262,l),
(253,326,o),
(232,383,o),
(191,397,o),
(148,397,qs)
);
},
{
closed = 1;
nodes = (
(339,500,l),
(296,500,o),
(260,482,o),
(252,448,o),
(253,411,qs),
(253,401,o),
(253,390,q),
(253,397,l),
(149,397,l),
(149,422,o),
(186,469,o),
(256,500,o),
(303,500,qs)
);
},
{
closed = 1;
nodes = (
(20,79,o),
(28,30,o),
(61,0,o),
(97,0,qs),
(20,0,l),
(20,126,l)
);
}
);
width = 436;
}
);
note = s;
unicode = (83,115);
},
{
glyphname = T;
lastChange = "2025-10-01 16:28:14 +0000";
layers = (
{
layerId = m01;
shapes = (
{
closed = 1;
nodes = (
(115,500,l),
(115,433,o),
(185,317,o),
(301,247,o),
(368,247,q),
(368,0,l),
(301,0,o),
(184,67,o),
(115,180,o),
(115,247,qs)
);
},
{
closed = 1;
nodes = (
(115,500,l),
(-11,500,l),
(27,500,o),
(84,531,o),
(115,588,o),
(115,626,qs)
);
},
{
closed = 1;
nodes = (
(115,500,l),
(115,753,l),
(115,686,o),
(185,570,o),
(301,500,o),
(368,500,qs)
);
}
);
width = 389;
},
{
layerId = "B64FBE30-4D06-4680-90AF-157B08CC9FE5";
shapes = (
{
closed = 1;
nodes = (
(115,313,l),
(115,246,o),
(185,130,o),
(301,60,o),
(368,60,q),
(368,0,l),
(301,0,o),
(184,67,o),
(115,180,o),
(115,247,qs)
);
},
{
closed = 1;
nodes = (
(115,500,l),
(39,500,l),
(75,500,o),
(108,530,o),
(115,578,o),
(115,626,qs)
);
},
{
closed = 1;
nodes = (
(115,500,l),
(115,626,l),
(115,562,o),
(180,508,o),
(268,500,o),
(368,500,qs)
);
}
);
width = 389;
}
);
note = t;
unicode = (84,116);
},
{
glyphname = U;
lastChange = "2025-10-01 16:28:14 +0000";
layers = (
{
layerId = m01;
shapes = (
{
closed = 1;
nodes = (
(56,500,l),
(59,440,o),
(125,324,o),
(238,249,o),
(308,247,q),
(308,0,l),
(238,0,o),
(122,72,o),
(56,189,o),
(56,251,qs)
);
},
{
closed = 1;
nodes = (
(396,500,o),
(339,469,o),
(308,412,o),
(308,374,qs),
(308,500,l),
(434,500,l)
);
}
);
width = 410;
},
{
layerId = "B64FBE30-4D06-4680-90AF-157B08CC9FE5";
shapes = (
{
closed = 1;
nodes = (
(56,313,l),
(59,253,o),
(125,137,o),
(238,62,o),
(308,60,q),
(308,0,l),
(238,0,o),
(122,72,o),
(56,189,o),
(56,251,qs)
);
},
{
closed = 1;
nodes = (
(346,500,o),
(314,471,o),
(308,423,o),
(308,374,qs),
(308,500,l),
(382,500,l)
);
}
);
width = 410;
}
);
note = u;
unicode = (85,117);
},
{
glyphname = V;
lastChange = "2025-10-01 16:28:14 +0000";
layers = (
{
layerId = m01;
shapes = (
{
closed = 1;
nodes = (
(308,0,l),
(305,60,o),
(239,176,o),
(126,251,o),
(56,253,q),
(56,500,l),
(126,500,o),
(242,428,o),
(308,311,o),
(308,249,qs)
);
},
{
closed = 1;
nodes = (
(396,500,o),
(339,469,o),
(308,412,o),
(308,374,qs),
(308,500,l),
(434,500,l)
);
}
);
width = 430;
},
{
layerId = "B64FBE30-4D06-4680-90AF-157B08CC9FE5";
shapes = (
{
closed = 1;
nodes = (
(288,187,l),
(285,247,o),
(219,363,o),
(106,438,o),
(36,440,q),
(36,500,l),
(106,500,o),
(222,428,o),
(288,311,o),
(288,249,qs)
);
},
{
closed = 1;
nodes = (
(330,500,o),
(296,470,o),
(288,420,o),
(288,374,qs),
(288,500,l),
(366,500,l)
);
}
);
width = 410;
}
);
note = v;
unicode = (86,118);
},
{
glyphname = W;
lastChange = "2025-10-01 16:28:14 +0000";
layers = (
{
layerId = m01;
shapes = (
{
closed = 1;
nodes = (
(547,0,l),
(547,67,o),
(477,183,o),
(361,253,o),
(294,253,q),
(294,500,l),
(361,500,o),
(478,433,o),
(547,320,o),
(547,253,qs)
);
},
{
closed = 1;
nodes = (
(294,0,l),
(294,67,o),
(224,183,o),
(108,253,o),
(41,253,q),
(41,500,l),
(108,500,o),
(225,433,o),
(294,320,o),
(294,253,qs)
);
},
{
closed = 1;
nodes = (
(635,500,o),
(578,469,o),
(547,412,o),
(547,374,qs),
(547,500,l),
(673,500,l)
);
}
);
width = 650;
},
{
layerId = "B64FBE30-4D06-4680-90AF-157B08CC9FE5";
shapes = (
{
closed = 1;
nodes = (
(547,187,l),
(547,254,o),
(477,370,o),
(361,440,o),
(294,440,q),
(294,500,l),
(361,500,o),
(478,433,o),
(547,320,o),
(547,253,qs)
);
},
{
closed = 1;
nodes = (
(294,187,l),
(294,254,o),
(224,370,o),
(108,440,o),
(41,440,q),
(41,500,l),
(108,500,o),
(225,433,o),
(294,320,o),
(294,253,qs)
);
},
{
closed = 1;
nodes = (
(587,500,o),
(554,470,o),
(547,422,o),
(547,374,qs),
(547,500,l),
(623,500,l)
);
}
);
width = 650;
}
);
note = w;
unicode = (87,119);
},
{
glyphname = X;
lastChange = "2025-10-01 16:28:14 +0000";
layers = (
{
layerId = m01;
shapes = (
{
closed = 1;
nodes = (
(328,0,l),
(325,60,o),
(259,176,o),
(146,251,o),
(76,253,q),
(76,500,l),
(146,500,o),
(262,428,o),
(328,311,o),
(328,249,qs)
);
},
{
closed = 1;
nodes = (
(416,500,o),
(359,469,o),
(328,412,o),
(328,374,qs),
(328,500,l),
(454,500,l)
);
},
{
closed = 1;
nodes = (
(104,0,o),
(161,31,o),
(192,88,o),
(192,126,qs),
(192,0,l),
(66,0,l)
);
}
);
width = 440;
},
{
layerId = "B64FBE30-4D06-4680-90AF-157B08CC9FE5";
shapes = (
{
closed = 1;
nodes = (
(328,187,l),
(325,247,o),
(259,363,o),
(146,438,o),
(76,440,q),
(76,500,l),
(146,500,o),
(262,428,o),
(328,311,o),
(328,249,qs)
);
},
{
closed = 1;
nodes = (
(372,500,o),
(337,470,o),
(328,419,o),
(328,374,qs),
(328,500,l),
(408,500,l)
);
},
{
closed = 1;
nodes = (
(152,0,o),
(185,30,o),
(192,78,o),
(192,126,qs),
(192,0,l),
(116,0,l)
);
}
);
width = 440;
}
);
note = x;
unicode = (88,120);
},
{
glyphname = Y;
lastChange = "2025-10-01 16:28:14 +0000";
layers = (
{
layerId = m01;
shapes = (
{
closed = 1;
nodes = (
(46,500,l),
(49,440,o),
(115,324,o),
(228,249,o),
(298,247,q),
(298,0,l),
(228,0,o),
(112,72,o),
(46,189,o),
(46,251,qs)
);
},
{
closed = 1;
nodes = (
(386,500,o),
(329,469,o),
(298,412,o),
(298,374,qs),
(298,500,l),
(424,500,l)
);
},
{
closed = 1;
nodes = (
(113,-387,o),
(229,-317,o),
(299,-201,o),
(299,-134,qs),
(299,-387,l),
(46,-387,l)
);
}
);
width = 400;
},
{
layerId = "B64FBE30-4D06-4680-90AF-157B08CC9FE5";
shapes = (
{
closed = 1;
nodes = (
(46,313,l),
(49,253,o),
(115,137,o),
(228,62,o),
(298,60,q),
(298,0,l),
(228,0,o),
(112,72,o),
(46,189,o),
(46,251,qs)
);
},
{
closed = 1;
nodes = (
(339,500,o),
(306,470,o),
(298,421,o),
(298,374,qs),
(298,500,l),
(375,500,l)
);
},
{
closed = 1;
nodes = (
(224,-387,o),
(284,-322,o),
(299,-220,o),
(299,-134,qs),
(299,-387,l),
(160,-387,l)
);
}
);
width = 400;
}
);
note = y;
unicode = (89,121);
},
{
glyphname = Z;
lastChange = "2025-10-01 16:28:14 +0000";
layers = (
{
layerId = m01;
shapes = (
{
closed = 1;
nodes = (
(51,253,ls),
(51,320,o),
(120,433,o),
(237,500,o),
(304,500,q),
(304,253,l),
(237,253,o),
(121,183,o),
(51,67,o),
(51,0,qs)
);
},
{
closed = 1;
nodes = (
(304,0,l),
(178,0,l),
(216,0,o),
(273,31,o),
(304,88,o),
(304,126,qs)
);
},
{
closed = 1;
nodes = (
(51,500,l),
(177,500,l),
(139,500,o),
(82,469,o),
(51,412,o),
(51,374,qs)
);
}
);
width = 360;
},
{
layerId = "B64FBE30-4D06-4680-90AF-157B08CC9FE5";
shapes = (
{
closed = 1;
nodes = (
(41,253,ls),
(41,320,o),
(110,433,o),
(227,500,o),
(294,500,q),
(294,440,l),
(227,440,o),
(111,370,o),
(41,254,o),
(41,187,q)
);
},
{
closed = 1;
nodes = (
(294,0,l),
(217,0,l),
(253,0,o),
(286,30,o),
(294,79,o),
(294,126,qs)
);
},
{
closed = 1;
nodes = (
(41,500,l),
(117,500,l),
(81,500,o),
(48,470,o),
(41,422,o),
(41,374,qs)
);
}
);
width = 350;
}
);
note = z;
unicode = (90,122);
},
{
glyphname = zero;
layers = (
{
layerId = m01;
shapes = (
{
closed = 1;
nodes = (
(87,640,ls),
(87,707,o),
(156,820,o),
(273,887,o),
(340,887,q),
(340,640,l),
(273,640,o),
(157,570,o),
(87,454,o),
(87,387,qs)
);
},
{
closed = 1;
nodes = (
(340,248,ls),
(340,181,o),
(271,68,o),
(154,1,o),
(87,1,q),
(87,248,l),
(154,248,o),
(270,318,o),
(340,434,o),
(340,501,qs)
);
}
);
width = 400;
},
{
layerId = "B64FBE30-4D06-4680-90AF-157B08CC9FE5";
shapes = (
{
closed = 1;
nodes = (
(87,640,ls),
(87,707,o),
(156,820,o),
(273,887,o),
(340,887,q),
(340,827,l),
(273,827,o),
(157,757,o),
(87,641,o),
(87,574,q)
);
},
{
closed = 1;
nodes = (
(340,248,ls),
(340,181,o),
(271,68,o),
(154,1,o),
(87,1,q),
(87,61,l),
(154,61,o),
(270,131,o),
(340,247,o),
(340,314,q)
);
}
);
width = 400;
}
);
note = zero;
unicode = 48;
},
{
glyphname = one;
layers = (
{
layerId = m01;
shapes = (
{
closed = 1;
nodes = (
(298,0,l),
(45,0,l),
(45,247,l),
(112,247,o),
(228,317,o),
(298,433,o),
(298,500,qs)
);
},
{
closed = 1;
nodes = (
(298,538,o),
(267,595,o),
(210,626,o),
(172,626,qs),
(298,626,l),
(298,500,l)
);
},
{
closed = 1;
nodes = (
(298,88,o),
(329,31,o),
(386,0,o),
(424,0,qs),
(298,0,l),
(298,126,l)
);
},
{
closed = 1;
nodes = (
(112,626,o),
(228,696,o),
(298,812,o),
(298,879,qs),
(298,626,l),
(45,626,l)
);
}
);
width = 440;
},
{
layerId = "B64FBE30-4D06-4680-90AF-157B08CC9FE5";
shapes = (
{
closed = 1;
nodes = (
(298,0,l),
(45,0,l),
(45,0,l),
(112,0,o),
(228,70,o),
(298,186,o),
(298,253,qs)
);
},
{
closed = 1;
nodes = (
(298,704,o),
(268,738,o),
(218,746,o),
(172,746,qs),
(298,746,l),
(298,668,l)
);
},
{
closed = 1;
nodes = (
(298,80,o),
(306,30,o),
(340,0,o),
(376,0,qs),
(298,0,l),
(298,126,l)
);
},
{
closed = 1;
nodes = (
(131,746,o),
(232,761,o),
(298,822,o),
(298,886,qs),
(298,746,l),
(45,746,l)
);
}
);
width = 440;
}
);
note = one;
unicode = 49;
},
{
glyphname = two;
layers = (
{
layerId = m01;
shapes = (
{
closed = 1;
nodes = (
(348,247,ls),
(348,180,o),
(279,67,o),
(162,0,o),
(95,0,q),
(95,247,l),
(162,247,o),
(278,317,o),
(348,433,o),
(348,500,qs)
);
},
{
closed = 1;
nodes = (
(348,500,l),
(348,538,o),
(317,595,o),
(260,626,o),
(222,626,qs),
(95,626,l),
(95,873,l),
(162,873,o),
(279,806,o),
(348,693,o),
(348,626,qs)
);
},
{
closed = 1;
nodes = (
(368,0,l),
(242,0,l),
(280,0,o),
(337,31,o),
(368,88,o),
(368,126,qs)
);
}
);
width = 440;
},
{
layerId = "B64FBE30-4D06-4680-90AF-157B08CC9FE5";
shapes = (
{
closed = 1;
nodes = (
(348,247,ls),
(348,180,o),
(279,67,o),
(162,0,o),
(95,0,q),
(95,60,l),
(162,60,o),
(278,130,o),
(348,246,o),
(348,313,q)
);
},
{
closed = 1;
nodes = (
(348,623,ls),
(348,663,o),
(281,752,o),
(166,813,o),
(98,813,qs),
(95,813,l),
(95,873,l),
(162,873,o),
(279,806,o),
(348,693,o),
(348,626,qs)
);
},
{
closed = 1;
nodes = (
(368,0,l),
(291,0,l),
(327,0,o),
(360,30,o),
(368,79,o),
(368,126,qs)
);
}
);
width = 440;
}
);
note = two;
unicode = 50;
},
{
glyphname = three;
layers = (
{
layerId = m01;
shapes = (
{
closed = 1;
nodes = (
(318,500,l),
(318,538,o),
(287,595,o),
(230,626,o),
(192,626,qs),
(65,626,l),
(65,873,l),
(132,873,o),
(249,806,o),
(318,693,o),
(318,626,qs)
);
},
{
closed = 1;
nodes = (
(318,500,l),
(318,247,l),
(318,314,o),
(248,430,o),
(132,500,o),
(65,500,qs)
);
},
{
closed = 1;
nodes = (
(65,373,l),
(65,335,o),
(96,278,o),
(153,247,o),
(191,247,qs),
(318,247,l),
(318,0,l),
(251,0,o),
(134,67,o),
(65,180,o),
(65,247,qs)
);
}
);
width = 380;
},
{
layerId = "B64FBE30-4D06-4680-90AF-157B08CC9FE5";
shapes = (
{
closed = 1;
nodes = (
(318,616,ls),
(318,673,o),
(249,763,o),
(133,813,o),
(65,813,q),
(65,813,l),
(65,873,l),
(133,873,o),
(249,812,o),
(318,699,o),
(318,626,qs)
);
},
{
closed = 1;
nodes = (
(318,500,l),
(318,247,l),
(318,336,o),
(305,435,o),
(246,500,o),
(182,500,qs)
);
},
{
closed = 1;
nodes = (
(65,303,l),
(65,252,o),
(104,143,o),
(217,60,o),
(318,60,q),
(318,60,l),
(318,0,l),
(250,0,o),
(134,56,o),
(65,154,o),
(65,214,qs)
);
}
);
width = 380;
}
);
note = three;
unicode = 51;
},
{
glyphname = four;
layers = (
{
layerId = m01;
shapes = (
{
closed = 1;
nodes = (
(65,626,ls),
(65,693,o),
(134,806,o),
(251,873,o),
(318,873,q),
(318,626,l),
(251,626,o),
(135,556,o),
(65,440,o),
(65,373,qs)
);
},
{
closed = 1;
nodes = (
(65,247,l),
(65,373,l),
(65,335,o),
(96,278,o),
(153,247,o),
(191,247,qs)
);
},
{
closed = 1;
nodes = (
(317,88,o),
(348,31,o),
(405,0,o),
(443,0,qs),
(317,0,l),
(317,126,l)
);
},
{
closed = 1;
nodes = (
(131,0,o),
(247,70,o),
(317,186,o),
(317,253,qs),
(317,0,l),
(64,0,l)
);
},
{
closed = 1;
nodes = (
(317,247,l),
(191,247,l),
(229,247,o),
(286,278,o),
(317,335,o),
(317,373,qs)
);
},
{
closed = 1;
nodes = (
(317,247,l),
(317,373,l),
(317,335,o),
(348,278,o),
(405,247,o),
(443,247,qs)
);
}
);
width = 450;
},
{
layerId = "B64FBE30-4D06-4680-90AF-157B08CC9FE5";
shapes = (
{
closed = 1;
nodes = (
(65,626,ls),
(65,693,o),
(134,806,o),
(251,873,o),
(318,873,q),
(318,813,l),
(251,813,o),
(135,743,o),
(65,627,o),
(65,560,q)
);
},
{
closed = 1;
nodes = (
(65,247,l),
(65,373,l),
(65,325,o),
(72,277,o),
(105,247,o),
(141,247,qs)
);
},
{
closed = 1;
nodes = (
(317,79,o),
(325,30,o),
(358,0,o),
(394,0,qs),
(317,0,l),
(317,126,l)
);
},
{
closed = 1;
nodes = (
(164,0,o),
(252,8,o),
(317,62,o),
(317,126,q),
(317,0,l),
(64,0,l)
);
},
{
closed = 1;
nodes = (
(317,247,l),
(239,247,l),
(275,247,o),
(309,277,o),
(317,327,o),
(317,373,qs)
);
},
{
closed = 1;
nodes = (
(317,247,l),
(317,373,l),
(317,326,o),
(325,277,o),
(358,247,o),
(394,247,qs)
);
}
);
width = 450;
}
);
note = four;
unicode = 52;
},
{
glyphname = five;
layers = (
{
layerId = m01;
shapes = (
{
closed = 1;
nodes = (
(55,873,l),
(308,873,l),
(308,626,l),
(55,626,l)
);
},
{
closed = 1;
nodes = (
(55,626,l),
(181,626,l),
(143,626,o),
(86,595,o),
(55,538,o),
(55,500,qs)
);
},
{
closed = 1;
nodes = (
(308,0,l),
(308,67,o),
(238,183,o),
(122,253,o),
(55,253,q),
(55,500,l),
(122,500,o),
(239,433,o),
(308,320,o),
(308,253,qs)
);
},
{
closed = 1;
nodes = (
(55,88,o),
(86,31,o),
(143,0,o),
(181,0,qs),
(55,0,l),
(55,126,l)
);
}
);
width = 370;
},
{
layerId = "B64FBE30-4D06-4680-90AF-157B08CC9FE5";
shapes = (
{
closed = 1;
nodes = (
(55,873,l),
(308,873,l),
(308,813,l),
(55,813,l)
);
},
{
closed = 1;
nodes = (
(55,813,l),
(181,813,l),
(135,813,o),
(85,805,o),
(55,771,o),
(55,735,qs)
);
},
{
closed = 1;
nodes = (
(308,187,l),
(308,254,o),
(238,370,o),
(122,440,o),
(55,440,q),
(55,500,l),
(122,500,o),
(239,433,o),
(308,320,o),
(308,253,qs)
);
},
{
closed = 1;
nodes = (
(55,78,o),
(62,30,o),
(95,0,o),
(131,0,qs),
(55,0,l),
(55,126,l)
);
}
);
width = 370;
}
);
note = five;
unicode = 53;
},
{
glyphname = six;
layers = (
{
layerId = m01;
shapes = (
{
closed = 1;
nodes = (
(45,0,l),
(45,253,l),
(45,186,o),
(115,70,o),
(231,0,o),
(298,0,qs)
);
},
{
closed = 1;
nodes = (
(298,0,l),
(298,67,o),
(228,183,o),
(112,253,o),
(45,253,q),
(45,500,l),
(112,500,o),
(229,433,o),
(298,320,o),
(298,253,qs)
);
},
{
closed = 1;
nodes = (
(45,626,ls),
(45,693,o),
(114,806,o),
(231,873,o),
(298,873,q),
(298,626,l),
(171,626,ls),
(133,626,o),
(76,595,o),
(45,538,o),
(45,500,qs)
);
}
);
width = 340;
},
{
layerId = "B64FBE30-4D06-4680-90AF-157B08CC9FE5";
shapes = (
{
closed = 1;
nodes = (
(45,0,l),
(45,253,l),
(45,165,o),
(59,65,o),
(118,0,o),
(182,0,qs)
);
},
{
closed = 1;
nodes = (
(298,187,l),
(298,253,o),
(228,370,o),
(112,440,o),
(45,440,q),
(45,500,l),
(112,500,o),
(229,433,o),
(298,320,o),
(298,253,qs)
);
},
{
closed = 1;
nodes = (
(45,626,ls),
(45,693,o),
(114,806,o),
(231,873,o),
(298,873,q),
(298,813,l),
(298,813,l),
(220,813,o),
(105,747,o),
(45,653,o),
(45,613,q)
);
}
);
width = 340;
}
);
note = six;
unicode = 54;
},
{
glyphname = seven;
layers = (
{
layerId = m01;
shapes = (
{
closed = 1;
nodes = (
(55,626,l),
(55,873,l),
(308,873,l),
(308,626,l)
);
},
{
closed = 1;
nodes = (
(308,557,o),
(239,626,o),
(182,626,qs),
(308,626,l),
(308,500,l)
);
},
{
closed = 1;
nodes = (
(55,253,ls),
(55,320,o),
(124,433,o),
(241,500,o),
(308,500,q),
(308,253,l),
(241,253,o),
(125,183,o),
(55,67,o),
(55,0,qs)
);
}
);
width = 363;
},
{
layerId = "B64FBE30-4D06-4680-90AF-157B08CC9FE5";
shapes = (
{
closed = 1;
nodes = (
(55,813,l),
(55,873,l),
(308,873,l),
(308,813,l)
);
},
{
closed = 1;
nodes = (
(308,744,o),
(239,813,o),
(182,813,qs),
(308,813,l),
(308,687,l)
);
},
{
closed = 1;
nodes = (
(55,253,ls),
(55,320,o),
(124,433,o),
(241,500,o),
(308,500,q),
(308,440,l),
(241,440,o),
(125,370,o),
(55,254,o),
(55,187,q)
);
}
);
width = 363;
}
);
note = seven;
unicode = 55;
},
{
glyphname = eight;
layers = (
{
layerId = m01;
shapes = (
{
closed = 1;
nodes = (
(65,626,ls),
(65,693,o),
(134,806,o),
(251,873,o),
(318,873,q),
(318,626,l),
(251,626,o),
(135,556,o),
(65,440,o),
(65,373,qs)
);
},
{
closed = 1;
nodes = (
(318,247,ls),
(318,180,o),
(249,67,o),
(132,0,o),
(65,0,q),
(65,247,l),
(132,247,o),
(248,317,o),
(318,433,o),
(318,500,qs)
);
},
{
closed = 1;
nodes = (
(318,500,l),
(192,500,l),
(230,500,o),
(287,531,o),
(318,588,o),
(318,626,qs)
);
},
{
closed = 1;
nodes = (
(65,373,l),
(191,373,l),
(153,373,o),
(96,342,o),
(65,285,o),
(65,247,qs)
);
}
);
width = 382;
},
{
layerId = "B64FBE30-4D06-4680-90AF-157B08CC9FE5";
shapes = (
{
closed = 1;
nodes = (
(65,626,ls),
(65,693,o),
(134,806,o),
(251,873,o),
(318,873,q),
(318,813,l),
(254,813,o),
(136,729,o),
(65,607,o),
(65,554,q)
);
},
{
closed = 1;
nodes = (
(318,247,ls),
(318,180,o),
(249,67,o),
(132,0,o),
(65,0,q),
(65,60,l),
(134,60,o),
(250,120,o),
(318,234,o),
(318,313,q)
);
},
{
closed = 1;
nodes = (
(318,500,l),
(240,500,l),
(276,500,o),
(310,530,o),
(318,580,o),
(318,626,qs)
);
},
{
closed = 1;
nodes = (
(65,373,l),
(141,373,l),
(105,373,o),
(72,343,o),
(65,295,o),
(65,247,qs)
);
}
);
width = 382;
}
);
note = eight;
unicode = 56;
},
{
glyphname = nine;
layers = (
{
layerId = m01;
shapes = (
{
closed = 1;
nodes = (
(308,374,l),
(308,441,o),
(238,557,o),
(122,627,o),
(55,627,q),
(55,874,l),
(122,874,o),
(239,807,o),
(308,694,o),
(308,627,qs)
);
},
{
closed = 1;
nodes = (
(55,374,l),
(55,627,l),
(55,560,o),
(125,444,o),
(241,374,o),
(308,374,qs)
);
},
{
closed = 1;
nodes = (
(308,247,ls),
(308,180,o),
(239,67,o),
(122,0,o),
(55,0,q),
(55,247,l),
(182,247,ls),
(220,247,o),
(277,278,o),
(308,335,o),
(308,373,qs)
);
}
);
width = 355;
},
{
layerId = "B64FBE30-4D06-4680-90AF-157B08CC9FE5";
shapes = (
{
closed = 1;
nodes = (
(308,561,l),
(308,628,o),
(238,744,o),
(122,814,o),
(55,814,q),
(55,874,l),
(122,874,o),
(239,807,o),
(308,694,o),
(308,627,qs)
);
},
{
closed = 1;
nodes = (
(55,374,l),
(55,627,l),
(55,538,o),
(68,439,o),
(127,374,o),
(191,374,qs)
);
},
{
closed = 1;
nodes = (
(308,247,ls),
(308,180,o),
(239,67,o),
(122,0,o),
(55,0,q),
(55,60,l),
(55,60,l),
(131,60,o),
(246,119,o),
(308,213,o),
(308,261,q)
);
}
);
width = 355;
}
);
note = nine;
unicode = 57;
},
